<?xml version="1.0" encoding="utf-8"?>
<!-- Generated by IcoMoon.io -->
<svg version="1.1" xmlns="http://www.w3.org/2000/svg" xmlns:xlink="http://www.w3.org/1999/xlink" width="704" height="20" viewBox="0 0 704 20">
<svg id="icon-icon-facebook" width="20" height="20" viewBox="0 0 20 20" x="0" y="0">
<path fill="#fff" d="M18.896 0h-17.792c-0.61 0-1.104 0.494-1.104 1.104v17.793c0 0.609 0.494 1.103 1.104 1.103h9.58v-7.745h-2.608v-3.018h2.606v-2.227c0-2.583 1.578-3.99 3.883-3.99 1.104 0 2.052 0.082 2.329 0.119v2.7h-1.598c-1.254 0-1.496 0.597-1.496 1.47v1.928h2.989l-0.39 3.018h-2.6v7.745h5.098c0.608 0 1.102-0.494 1.102-1.104v-17.792c0.001-0.61-0.493-1.104-1.103-1.104z"></path>
</svg>
<svg id="icon-icon-instagram" width="21" height="20" viewBox="0 0 21 20" x="36" y="0">
<path fill="#fff" d="M10.333 1.802c2.67 0 2.987 0.010 4.042 0.059 2.71 0.123 3.976 1.409 4.1 4.099 0.048 1.054 0.057 1.37 0.057 4.040 0 2.672-0.010 2.988-0.058 4.042-0.124 2.687-1.386 3.975-4.099 4.099-1.055 0.048-1.37 0.058-4.042 0.058-2.67 0-2.986-0.010-4.040-0.058-2.717-0.124-3.976-1.416-4.1-4.1-0.048-1.054-0.058-1.37-0.058-4.041s0.010-2.986 0.058-4.040c0.124-2.69 1.387-3.977 4.1-4.1 1.054-0.048 1.37-0.058 4.040-0.058zM10.333 0c-2.715 0-3.055 0.012-4.122 0.060-3.632 0.167-5.651 2.182-5.817 5.817-0.049 1.067-0.060 1.407-0.060 4.123s0.011 3.057 0.060 4.123c0.166 3.632 2.181 5.65 5.816 5.817 1.068 0.048 1.408 0.060 4.123 0.060s3.057-0.012 4.124-0.060c3.628-0.167 5.651-2.182 5.816-5.817 0.049-1.066 0.060-1.407 0.060-4.123s-0.011-3.056-0.060-4.122c-0.163-3.629-2.18-5.65-5.815-5.818-1.068-0.050-1.409-0.060-4.125-0.060zM10.333 4.865c-2.836 0-5.135 2.299-5.135 5.135s2.299 5.135 5.135 5.135v0c2.836 0 5.135-2.299 5.135-5.135s-2.299-5.135-5.135-5.135v0zM10.333 13.333c-1.841 0-3.333-1.492-3.333-3.333s1.492-3.333 3.333-3.333v0c1.841 0 3.333 1.492 3.333 3.333s-1.492 3.333-3.333 3.333v0zM15.672 3.463c-0 0-0 0-0.001 0-0.663 0-1.2 0.537-1.2 1.2s0.537 1.2 1.199 1.2h0c0.663 0 1.2-0.537 1.2-1.2s-0.537-1.2-1.2-1.2v0z"></path>
</svg>
<svg id="icon-icon-pinterest" width="20" height="20" viewBox="0 0 20 20" x="72" y="0">
<path fill="#fff" d="M10 0c-5.522 0-10 4.477-10 10 0 4.237 2.636 7.855 6.356 9.312-0.088-0.791-0.167-2.005 0.035-2.868 0.182-0.78 1.172-4.97 1.172-4.97s-0.299-0.6-0.299-1.486c0-1.39 0.806-2.428 1.81-2.428 0.852 0 1.264 0.64 1.264 1.408 0 0.858-0.545 2.14-0.828 3.33-0.236 0.995 0.5 1.807 1.48 1.807 1.778 0 3.144-1.874 3.144-4.58 0-2.393-1.72-4.068-4.177-4.068-2.845 0-4.515 2.135-4.515 4.34 0 0.859 0.331 1.781 0.745 2.281 0.050 0.053 0.081 0.126 0.081 0.205 0 0.030-0.004 0.058-0.012 0.085l0.001-0.002-0.278 1.133c-0.044 0.183-0.145 0.223-0.335 0.134-1.249-0.581-2.030-2.407-2.030-3.874 0-3.154 2.292-6.052 6.608-6.052 3.469 0 6.165 2.473 6.165 5.776 0 3.447-2.173 6.22-5.19 6.22-1.013 0-1.965-0.525-2.291-1.148l-0.623 2.378c-0.226 0.869-0.835 1.958-1.244 2.621 0.937 0.29 1.931 0.446 2.962 0.446 5.522 0 10-4.477 10-10s-4.478-10-10-10z"></path>
</svg>
<svg id="icon-icon-twitter" width="23" height="20" viewBox="0 0 23 20" x="108" y="0">
<path fill="#fff" d="M22.963 3.108c-0.763 0.348-1.647 0.6-2.575 0.713l-0.044 0.004c0.943-0.571 1.652-1.447 1.995-2.49l0.009-0.032c-0.833 0.503-1.804 0.887-2.837 1.097l-0.059 0.010c-0.833-0.887-2.013-1.44-3.322-1.44-0.002 0-0.004 0-0.006 0h0c-2.943 0-5.106 2.747-4.441 5.598-3.798-0.196-7.139-2-9.378-4.74l-0.018-0.023c-0.388 0.657-0.617 1.447-0.617 2.291 0 1.575 0.798 2.964 2.012 3.785l0.016 0.010c-0.762-0.024-1.47-0.232-2.088-0.581l0.023 0.012c-0.050 2.112 1.463 4.089 3.656 4.528-0.359 0.101-0.772 0.16-1.198 0.16-0.305 0-0.602-0.030-0.89-0.087l0.029 0.005c0.6 1.826 2.273 3.129 4.256 3.167l0.004 0c-1.542 1.218-3.514 1.954-5.658 1.954-0.385 0-0.764-0.024-1.137-0.070l0.045 0.004c1.972 1.284 4.385 2.048 6.976 2.048 0.004 0 0.009 0 0.013 0h-0.001c8.464 0 13.247-7.149 12.958-13.561 0.896-0.653 1.651-1.435 2.255-2.327l0.021-0.033z"></path>
</svg>
<svg id="icon-icon-youtube" width="21" height="20" viewBox="0 0 21 20" x="144" y="0">
<path fill="#fff" d="M10.333 0c-5.522 0-10 4.478-10 10 0 5.523 4.478 10 10 10 5.523 0 10-4.477 10-10 0-5.522-4.477-10-10-10zM14.034 14.077c-1.752 0.12-5.653 0.12-7.402 0-1.897-0.13-2.118-1.059-2.132-4.077 0.014-3.024 0.237-3.947 2.132-4.077 1.749-0.12 5.651-0.12 7.402 0 1.898 0.13 2.118 1.059 2.133 4.077-0.015 3.024-0.238 3.947-2.133 4.077zM8.667 8.048l4.097 1.949-4.097 1.955v-3.904z"></path>
</svg>
</svg>
